<svg version="1.1" xmlns="http://www.w3.org/2000/svg" xmlns:xlink="http://www.w3.org/1999/xlink" x="0px" y="0px" width="1000px" height="1000px" viewBox="0 0 1000 1000" xml:space="preserve"><path d="M570.158,493.054l-57.465-32.84c-0.85-0.476-1.877-0.476-2.722,0l-57.468,32.84
                    c-0.855,0.488-1.384,1.398-1.384,2.383v60.199c0,0.981,0.529,1.89,1.384,2.38l57.468,32.838c0.424,0.248,0.894,0.359,1.36,0.359
                    c0.472,0,0.934-0.111,1.361-0.359l57.465-32.838c0.855-0.49,1.379-1.398,1.379-2.38v-60.199
                    C571.537,494.453,571.014,493.542,570.158,493.054" class="_1h_AXFZlQSwUGTXcm_YHNy"></path><g class="_1bO9cZmkdNOHxa0Cw75pWX" style="fill:#15153b;"><path d="M600.764,312.329c-6.17,18.985,11.35,41.69,39.135,50.719c27.785,9.025,55.303,0.958,61.473-18.034
                        c6.162-18.979-11.357-41.689-39.133-50.714C634.453,285.271,606.936,293.351,600.764,312.329"></path><path d="M936.33,357.868c-41.664-13.537-83.811,1.188-94.115,32.916c-10.309,31.719,15.129,68.405,56.793,81.94
                        c41.666,13.543,83.807-1.187,94.117-32.907C1003.43,408.096,977.996,371.412,936.33,357.868"></path><path d="M778.018,343.041c-35.65-11.583-68.096-10.083-72.453,3.333c-4.363,13.439,21.002,33.712,56.654,45.297
                        c35.66,11.586,68.094,10.085,72.453-3.337C839.037,374.902,813.668,354.627,778.018,343.041"></path><path d="M779.377,338.851c3.939,1.277,8.172-0.87,9.436-4.809l32.691-100.604c1.287-3.936-0.869-8.165-4.805-9.442
                        c-3.936-1.286-8.162,0.869-9.445,4.81l-32.686,100.608C773.295,333.344,775.443,337.578,779.377,338.851"></path><path d="M726.518,321.501c2.439,5.492,7.473,8.582,11.256,6.901c3.785-1.671,4.885-7.482,2.443-12.97
                        l-62.225-140.34c-2.428-5.49-7.461-8.576-11.256-6.909c-3.781,1.681-4.871,7.487-2.434,12.984L726.518,321.501z"></path><path d="M812.564,351.291c1.24,3.945,6.902,5.682,12.615,3.864l146.379-46.256
                        c5.736-1.805,9.354-6.477,8.107-10.424c-1.244-3.945-6.889-5.675-12.621-3.865l-146.367,46.254
                        C814.939,342.679,811.32,347.345,812.564,351.291"></path><path d="M899.34,545.707c3.322-2.464,3.133-8.372-0.443-13.206l-91.225-123.459
                        c-3.564-4.827-9.162-6.752-12.486-4.291c-3.324,2.468-3.139,8.37,0.438,13.206l91.229,123.455
                        C890.42,546.24,896.01,548.169,899.34,545.707"></path><path d="M615.213,288.9c3.203-2.611,4.334-6.527,2.518-8.75l-46.27-56.73c-1.828-2.214-5.891-1.891-9.096,0.716
                        c-3.211,2.616-4.344,6.537-2.527,8.762l46.281,56.728C607.945,291.839,612.002,291.516,615.213,288.9"></path><path d="M592.711,330.904l-70.785,18.686c-2.771,0.731-4.164,4.562-3.102,8.572
                        c1.049,4.001,4.154,6.642,6.928,5.916l70.791-18.686c2.764-0.736,4.148-4.562,3.105-8.568
                        C598.584,332.824,595.484,330.179,592.711,330.904"></path><path d="M709.777,376.585l-132.818,76.961c-5.197,3.017-7.734,8.359-5.654,11.942
                        c2.08,3.57,7.973,4.034,13.166,1.024l132.816-76.963c5.199-3.015,7.73-8.354,5.656-11.93
                        C720.869,374.032,714.977,373.576,709.777,376.585"></path><path d="M732.436,507.577l32.688-100.598c1.277-3.94-0.875-8.162-4.811-9.442c-3.936-1.278-8.166,0.872-9.443,4.812
                        l-32.688,100.607c-1.283,3.933,0.873,8.154,4.809,9.44C726.926,513.675,731.152,511.519,732.436,507.577"></path></g><g class="_1bO9cZmkdNOHxa0Cw75pWX" style="fill:#15153b;"><path d="M399.713,293.364c-16.15-11.731-43.157-2.084-60.333,21.547c-17.168,23.631-17.989,52.3-1.846,64.033
                        c16.154,11.731,43.159,2.084,60.331-21.547C415.036,333.761,415.867,305.095,399.713,293.364"></path><path d="M486.762,173.553c26.98,19.605,69.728,6.75,95.482-28.691c25.76-35.447,24.758-80.076-2.215-99.676
                        c-26.988-19.608-69.73-6.758-95.49,28.688C458.788,109.32,459.78,153.952,486.762,173.553"></path><path d="M402.304,289.796c11.422,8.304,38.546-9.556,60.581-39.884c22.034-30.331,30.635-61.645,19.218-69.943
                        c-11.427-8.303-38.546,9.564-60.586,39.889C399.489,250.181,390.882,281.503,402.304,289.796"></path><path d="M321.911,156.748l85.58,62.177c3.348,2.434,8.03,1.69,10.463-1.656c2.431-3.348,1.695-8.037-1.656-10.468
                        l-85.58-62.177c-3.348-2.432-8.036-1.687-10.468,1.656C317.816,149.628,318.56,154.316,321.911,156.748"></path><path d="M232.429,277.985l152.69-15.811c5.976-0.611,10.468-4.446,10.044-8.565
                        c-0.427-4.12-5.612-6.95-11.583-6.333L230.885,263.08c-5.973,0.617-10.471,4.452-10.053,8.572
                        C221.254,275.778,226.447,278.603,232.429,277.985"></path><path d="M440.04,189.551c4.14,0.034,7.532-4.81,7.577-10.804l1.239-153.507c0.055-6.01-3.27-10.902-7.407-10.941
                        c-4.139-0.029-7.528,4.811-7.583,10.814l-1.234,153.497C432.583,184.625,435.901,189.518,440.04,189.551"></path><path d="M485.513,222.595c1.32,3.931,6.989,5.569,12.696,3.666l145.602-48.609c5.693-1.905,9.254-6.627,7.949-10.55
                        c-1.318-3.921-6.998-5.562-12.701-3.663l-145.605,48.615C487.758,213.951,484.204,218.67,485.513,222.595"></path><path d="M249.341,393.322l68.256-26.493c2.67-1.039,3.623-5.009,2.119-8.869c-1.492-3.85-4.871-6.133-7.539-5.099
                        l-68.254,26.486c-2.677,1.039-3.617,5.004-2.135,8.861C243.295,392.069,246.672,394.353,249.341,393.322"></path><path d="M363.569,466.278l4.11-73.101c0.148-2.862-3.061-5.358-7.189-5.592c-4.141-0.233-7.611,1.895-7.78,4.756
                        l-4.094,73.105c-0.164,2.856,3.048,5.363,7.188,5.597C359.937,471.267,363.414,469.139,363.569,466.278"></path><path d="M437.387,282.919c-4.055,0.87-6.313,6.333-5.055,12.205l32.152,150.103c1.261,5.876,5.558,9.94,9.607,9.066
                        c4.041-0.873,6.304-6.335,5.046-12.209l-32.153-150.106C445.729,286.109,441.425,282.054,437.387,282.919"></path><path d="M467.873,253.538c-2.434,3.343-1.686,8.034,1.661,10.467l85.572,62.178
                        c3.354,2.426,8.043,1.69,10.471-1.663c2.434-3.342,1.691-8.03-1.658-10.462l-85.578-62.177
                        C474.993,249.447,470.304,250.191,467.873,253.538"></path></g><g class="_1bO9cZmkdNOHxa0Cw75pWX" style="fill:#15153b;"><path d="M319.548,649.869c16.148-11.732,15.319-40.397-1.846-64.028c-17.171-23.627-44.182-33.284-60.332-21.552
                        c-16.154,11.737-15.323,40.407,1.847,64.043C276.386,651.963,303.399,661.606,319.548,649.869"></path><path d="M170.327,444.485c26.977-19.61,27.969-64.231,2.22-99.683c-25.757-35.441-68.505-48.292-95.49-28.691
                        c-26.983,19.609-27.975,64.233-2.218,99.679C100.587,451.24,143.343,464.086,170.327,444.485"></path><path d="M174.987,450.898c-11.426,8.298-2.82,39.616,19.208,69.938c22.04,30.334,49.165,48.189,60.586,39.892
                        c11.421-8.304,2.815-39.61-19.213-69.936C213.529,460.46,186.406,442.6,174.987,450.898"></path><path d="M190.635,523.435c-2.432-3.352-7.12-4.101-10.468-1.661l-85.575,62.179
                        c-3.353,2.433-4.088,7.121-1.661,10.464c2.434,3.352,7.115,4.095,10.467,1.651l85.58-62.168
                        C192.325,531.461,193.068,526.777,190.635,523.435"></path><path d="M181.442,727.709c4.049,0.869,8.347-3.197,9.607-9.07l32.152-150.094c1.255-5.873-1-11.334-5.055-12.203
                        c-4.043-0.87-8.34,3.182-9.596,9.055l-32.153,150.103C175.139,721.373,177.403,726.829,181.442,727.709"></path><path d="M171.099,493.86c1.314-3.916-2.25-8.64-7.936-10.537l-145.612-48.62
                        c-5.701-1.904-11.372-0.257-12.695,3.668c-1.309,3.913,2.254,8.64,7.951,10.544l145.6,48.609
                        C164.107,499.428,169.789,497.796,171.099,493.86"></path><path d="M216.581,460.823c4.145-0.038,7.452-4.928,7.405-10.938l-1.23-153.509
                        c-0.058-5.997-3.445-10.839-7.589-10.805c-4.136,0.041-7.454,4.931-7.397,10.941l1.234,153.505
                        C209.052,456.019,212.441,460.853,216.581,460.823"></path><path d="M294.088,660.333c-4.131,0.233-7.349,2.74-7.183,5.598l4.093,73.104c0.169,2.852,3.646,4.984,7.77,4.761
                        c4.141-0.228,7.358-2.739,7.201-5.602l-4.106-73.099C301.699,662.233,298.227,660.102,294.088,660.333"></path><path d="M412.782,660.956c1.497-3.848,0.541-7.818-2.131-8.857l-68.255-26.492c-2.671-1.039-6.04,1.253-7.543,5.111
                        c-1.495,3.867-0.541,7.822,2.131,8.861l68.249,26.491C407.907,667.11,411.286,664.827,412.782,660.956"></path><path d="M423.355,534.717l-152.69-15.811c-5.977-0.626-11.165,2.216-11.588,6.331
                        c-0.427,4.116,4.07,7.958,10.046,8.576l152.69,15.805c5.974,0.621,11.173-2.216,11.591-6.332
                        C433.828,539.167,429.332,535.334,423.355,534.717"></path><path d="M240.556,487.166c2.434,3.348,7.115,4.083,10.468,1.652l85.575-62.177
                        c3.351-2.432,4.092-7.115,1.661-10.468c-2.433-3.343-7.12-4.083-10.468-1.651l-85.578,62.177
                        C238.87,479.132,238.125,483.818,240.556,487.166"></path></g><g class="_1bO9cZmkdNOHxa0Cw75pWX" style="fill:#15153b;"><path d="M532.525,801.424c27.779-9.03,45.299-31.733,39.129-50.726c-6.166-18.981-33.688-27.057-61.468-18.029
                        c-27.779,9.032-45.307,31.734-39.132,50.722C477.217,802.371,504.744,810.441,532.525,801.424"></path><path d="M330.209,829.155c-10.307-31.715-52.446-46.454-94.116-32.915c-41.666,13.54-67.096,50.23-56.789,81.95
                        c10.305,31.722,52.441,46.451,94.11,32.91C315.081,897.562,340.513,860.876,330.209,829.155"></path><path d="M410.204,830.04c35.657-11.576,61.023-31.856,56.656-45.289c-4.365-13.423-36.803-14.921-72.457-3.333
                        c-35.65,11.587-61.012,31.856-56.648,45.286C342.111,840.135,374.554,841.632,410.204,830.04"></path><path d="M421.008,839.048c-1.277-3.94-5.5-6.088-9.441-4.81c-3.935,1.276-6.09,5.499-4.812,9.439l32.698,100.607
                        c1.272,3.929,5.496,6.081,9.436,4.805c3.94-1.283,6.09-5.5,4.81-9.445L421.008,839.048z"></path><path d="M597.355,894.161L464.53,817.2c-5.193-3.013-11.09-2.546-13.164,1.029
                        c-2.079,3.581,0.459,8.919,5.653,11.942l132.818,76.956c5.205,3.007,11.082,2.546,13.166-1.025
                        C605.084,902.517,602.553,897.174,597.355,894.161"></path><path d="M377.405,843.678c-3.323-2.465-8.914-0.539-12.471,4.29l-91.238,123.455
                        c-3.57,4.834-3.759,10.738-0.44,13.206c3.333,2.462,8.919,0.538,12.491-4.296l91.227-123.455
                        C380.544,852.044,380.737,846.136,377.405,843.678"></path><path d="M192.935,737.396c-1.244,3.944,2.383,8.619,8.112,10.416l146.38,46.262
                        c5.72,1.816,11.37,0.082,12.609-3.867c1.253-3.945-2.383-8.609-8.108-10.422L205.562,733.53
                        C199.831,731.717,194.174,733.456,192.935,737.396"></path><path d="M576.842,786.719l70.787,18.685c2.777,0.729,5.879-1.924,6.939-5.916c1.049-4.004-0.336-7.842-3.111-8.576
                        l-70.785-18.685c-2.77-0.734-5.879,1.918-6.939,5.927C572.684,782.151,574.068,785.989,576.842,786.719"></path><path d="M611.01,665.459c-3.199-2.618-7.266-2.939-9.084-0.715l-46.279,56.731c-1.816,2.211-0.686,6.137,2.516,8.76
                        c3.213,2.609,7.277,2.93,9.096,0.714l46.285-56.73C615.354,671.993,614.223,668.073,611.01,665.459"></path><path d="M505.468,609.481c-3.779-1.671-8.815,1.419-11.259,6.913l-62.211,140.338
                        c-2.435,5.481-1.343,11.291,2.438,12.967c3.785,1.678,8.831-1.414,11.258-6.903l62.223-140.337
                        C510.351,616.968,509.26,611.147,505.468,609.481"></path><path d="M355.18,660.688c-3.935,1.288-6.09,5.51-4.809,9.449l32.689,100.602c1.279,3.931,5.502,6.087,9.438,4.811
                        c3.941-1.278,6.091-5.506,4.81-9.444l-32.684-100.607C363.345,661.572,359.121,659.416,355.18,660.688"></path></g><g class="_1bO9cZmkdNOHxa0Cw75pWX" style="fill:#15153b;"><path d="M745.467,542.097c-19.963,0-36.148,23.68-36.148,52.888s16.186,52.894,36.148,52.894
                        c19.957,0,36.141-23.686,36.141-52.894S765.424,542.097,745.467,542.097"></path><path d="M745.467,795.969c-33.359,0-60.389,35.521-60.389,79.341c0,43.813,27.029,79.333,60.389,79.333
                        c33.346,0,60.379-35.52,60.379-79.333C805.846,831.489,778.812,795.969,745.467,795.969"></path><path d="M745.467,788.029c14.107,0,25.559-30.383,25.559-67.876c0-37.486-11.451-67.87-25.559-67.87
                        c-14.129,0-25.57,30.384-25.57,67.87C719.896,757.646,731.338,788.029,745.467,788.029"></path><path d="M888.709,712.663H782.924c-4.139,0-7.49,3.352-7.49,7.49c0,4.146,3.352,7.496,7.49,7.496h105.785
                        c4.139,0,7.492-3.351,7.492-7.496C896.201,716.015,892.848,712.663,888.709,712.663"></path><path d="M889.838,561.986l-114.24,102.53c-4.465,4.023-5.85,9.765-3.09,12.846
                        c2.764,3.085,8.629,2.327,13.098-1.686l114.242-102.541c4.467-4.017,5.846-9.755,3.086-12.835
                        C900.176,557.211,894.312,557.968,889.838,561.986"></path><path d="M786.275,760.057c-3.492-4.894-9.045-6.904-12.422-4.495c-3.363,2.405-3.26,8.317,0.225,13.19
                        l89.23,124.923c3.49,4.896,9.043,6.895,12.418,4.499c3.369-2.405,3.266-8.312-0.225-13.199L786.275,760.057z"></path><path d="M717.648,755.558c-3.379-2.405-8.932-0.395-12.428,4.494l-89.229,124.911
                        c-3.49,4.894-3.592,10.8-0.225,13.211c3.371,2.396,8.93,0.393,12.424-4.499l89.232-124.928
                        C720.906,763.874,721.01,757.962,717.648,755.558"></path><path d="M817.471,478.319c-3.486-2.245-7.555-2.109-9.109,0.304l-39.648,61.55
                        c-1.551,2.409,0.014,6.185,3.492,8.419c3.48,2.245,7.551,2.1,9.105-0.306l39.65-61.55
                        C822.51,484.333,820.945,480.563,817.471,478.319"></path><path d="M676.545,478.319c-3.469,2.245-5.037,6.015-3.479,8.417l39.646,61.55c1.553,2.405,5.625,2.551,9.104,0.306
                        c3.479-2.234,5.043-6.01,3.498-8.419l-39.654-61.55C684.105,476.21,680.033,476.074,676.545,478.319"></path><path d="M721.127,678.465c2.758-3.085,1.379-8.827-3.092-12.846l-114.238-102.53
                        c-4.471-4.019-10.34-4.774-13.098-1.686c-2.76,3.075-1.381,8.823,3.09,12.831l114.24,102.539
                        C712.498,680.793,718.361,681.55,721.127,678.465"></path><path d="M713.727,720.153c0-4.139-3.352-7.49-7.492-7.49H600.455c-4.139,0-7.492,3.352-7.492,7.49
                        c0,4.146,3.354,7.496,7.492,7.496h105.779C710.375,727.649,713.727,724.299,713.727,720.153"></path></g></svg>
