<?xml version="1.0" encoding="UTF-8" standalone="no"?>
<svg
   xmlns:dc="http://purl.org/dc/elements/1.1/"
   xmlns:cc="http://creativecommons.org/ns#"
   xmlns:rdf="http://www.w3.org/1999/02/22-rdf-syntax-ns#"
   xmlns:svg="http://www.w3.org/2000/svg"
   xmlns="http://www.w3.org/2000/svg"
   width="100"
   height="100"
   viewBox="0 0 26.458333 26.458334"
   version="1.1"
   id="svg839">
  <defs
     id="defs833" />
  <metadata
     id="metadata836">
    <rdf:RDF>
      <cc:Work
         rdf:about="">
        <dc:format>image/svg+xml</dc:format>
        <dc:type
           rdf:resource="http://purl.org/dc/dcmitype/StillImage" />
        <dc:title></dc:title>
      </cc:Work>
    </rdf:RDF>
  </metadata>
  <g
     id="layer1"
     transform="matrix(1.0904919,0,0,1.1051839,-1.1181609,-1.3706353)">
    <path
       style="fill:none;stroke:#000000;stroke-width:2.11667;stroke-linecap:butt;stroke-linejoin:miter;stroke-miterlimit:4;stroke-dasharray:none;stroke-opacity:1"
       d="M 4.6001953,11.678127 V 24.087794 H 21.861618 V 11.351519"
       id="path1420" />
    <path
       style="fill:none;stroke:#000000;stroke-width:2.64583;stroke-linecap:butt;stroke-linejoin:miter;stroke-miterlimit:4;stroke-dasharray:none;stroke-opacity:1"
       d="m 1.937128,13.030728 c 0,0 11.292039,-8.8318279 11.292039,-11.7172612"
       id="path1448" />
    <path
       style="fill:none;stroke:#000000;stroke-width:2.64583;stroke-linecap:butt;stroke-linejoin:miter;stroke-miterlimit:4;stroke-dasharray:none;stroke-opacity:1"
       d="m 24.521205,13.030727 c 0,0 -11.292038,-8.8318268 -11.292038,-11.7172602"
       id="path1448-3" />
  </g>
  <g
     id="g2316"
     transform="matrix(0.01602191,0,0,0.01634236,4.9523792,7.3164841)"
     style="fill:#c83232;fill-opacity:1">
    <path
       style="fill:#000046;fill-opacity:1;stroke:#000000;stroke-width:17.9505px;stroke-linecap:butt;stroke-linejoin:miter;stroke-opacity:1"
       d="M -65.788946,1097.4132 -60.841765,200.41321 518.37765,-342.79691 1109.0673,236.09786 V 1097.4132 H -65.788946"
       id="path2345" />
    <path
       d="m 579.93424,508.1361 -62.66512,-36.29424 c -0.92692,-0.52606 -2.04685,-0.52606 -2.96832,0 l -62.66838,36.29424 c -0.93237,0.53933 -1.50924,1.54505 -1.50924,2.63366 v 66.53096 c 0,1.08418 0.57687,2.0888 1.50924,2.63034 l 62.66838,36.29202 c 0.46237,0.27409 0.9749,0.39677 1.48307,0.39677 0.51471,0 1.01852,-0.12268 1.48416,-0.39677 l 62.66512,-36.29202 c 0.93237,-0.54154 1.50378,-1.54505 1.50378,-2.63034 v -66.53096 c 0.001,-1.08751 -0.56923,-2.09433 -1.50269,-2.63366"
       class="_1h_AXFZlQSwUGTXcm_YHNy"
       id="path2125"
       style="fill:#1e1e78;fill-opacity:1;stroke-width:1.09781" />
    <g
       class="_1bO9cZmkdNOHxa0Cw75pWX"
       style="fill:#ff3232;fill-opacity:1"
       id="g2149"
       transform="matrix(1.0904919,0,0,1.1051839,-41.818418,-36.779222)">
      <path
         d="m 600.764,312.329 c -6.17,18.985 11.35,41.69 39.135,50.719 27.785,9.025 55.303,0.958 61.473,-18.034 6.162,-18.979 -11.357,-41.689 -39.133,-50.714 -27.786,-9.029 -55.303,-0.949 -61.475,18.029"
         id="path2127"
         style="fill:#ff3232;fill-opacity:1" />
      <path
         d="m 936.33,357.868 c -41.664,-13.537 -83.811,1.188 -94.115,32.916 -10.309,31.719 15.129,68.405 56.793,81.94 41.666,13.543 83.807,-1.187 94.117,-32.907 10.305,-31.721 -15.129,-68.405 -56.795,-81.949"
         id="path2129"
         style="fill:#ff3232;fill-opacity:1" />
      <path
         d="m 778.018,343.041 c -35.65,-11.583 -68.096,-10.083 -72.453,3.333 -4.363,13.439 21.002,33.712 56.654,45.297 35.66,11.586 68.094,10.085 72.453,-3.337 4.365,-13.432 -21.004,-33.707 -56.654,-45.293"
         id="path2131"
         style="fill:#ff3232;fill-opacity:1" />
      <path
         d="m 779.377,338.851 c 3.939,1.277 8.172,-0.87 9.436,-4.809 l 32.691,-100.604 c 1.287,-3.936 -0.869,-8.165 -4.805,-9.442 -3.936,-1.286 -8.162,0.869 -9.445,4.81 l -32.686,100.608 c -1.273,3.93 0.875,8.164 4.809,9.437"
         id="path2133"
         style="fill:#ff3232;fill-opacity:1" />
      <path
         d="m 726.518,321.501 c 2.439,5.492 7.473,8.582 11.256,6.901 3.785,-1.671 4.885,-7.482 2.443,-12.97 l -62.225,-140.34 c -2.428,-5.49 -7.461,-8.576 -11.256,-6.909 -3.781,1.681 -4.871,7.487 -2.434,12.984 z"
         id="path2135"
         style="fill:#ff3232;fill-opacity:1" />
      <path
         d="m 812.564,351.291 c 1.24,3.945 6.902,5.682 12.615,3.864 l 146.379,-46.256 c 5.736,-1.805 9.354,-6.477 8.107,-10.424 -1.244,-3.945 -6.889,-5.675 -12.621,-3.865 l -146.367,46.254 c -5.738,1.815 -9.357,6.481 -8.113,10.427"
         id="path2137"
         style="fill:#ff3232;fill-opacity:1" />
      <path
         d="m 899.34,545.707 c 3.322,-2.464 3.133,-8.372 -0.443,-13.206 L 807.672,409.042 c -3.564,-4.827 -9.162,-6.752 -12.486,-4.291 -3.324,2.468 -3.139,8.37 0.438,13.206 l 91.229,123.455 c 3.567,4.828 9.157,6.757 12.487,4.295"
         id="path2139"
         style="fill:#ff3232;fill-opacity:1" />
      <path
         d="m 615.213,288.9 c 3.203,-2.611 4.334,-6.527 2.518,-8.75 l -46.27,-56.73 c -1.828,-2.214 -5.891,-1.891 -9.096,0.716 -3.211,2.616 -4.344,6.537 -2.527,8.762 l 46.281,56.728 c 1.826,2.213 5.883,1.89 9.094,-0.726"
         id="path2141"
         style="fill:#ff3232;fill-opacity:1" />
      <path
         d="m 592.711,330.904 -70.785,18.686 c -2.771,0.731 -4.164,4.562 -3.102,8.572 1.049,4.001 4.154,6.642 6.928,5.916 l 70.791,-18.686 c 2.764,-0.736 4.148,-4.562 3.105,-8.568 -1.064,-4 -4.164,-6.645 -6.937,-5.92"
         id="path2143"
         style="fill:#ff3232;fill-opacity:1" />
      <path
         d="m 709.777,376.585 -132.818,76.961 c -5.197,3.017 -7.734,8.359 -5.654,11.942 2.08,3.57 7.973,4.034 13.166,1.024 l 132.816,-76.963 c 5.199,-3.015 7.73,-8.354 5.656,-11.93 -2.074,-3.587 -7.966,-4.043 -13.166,-1.034"
         id="path2145"
         style="fill:#ff3232;fill-opacity:1" />
      <path
         d="m 732.436,507.577 32.688,-100.598 c 1.277,-3.94 -0.875,-8.162 -4.811,-9.442 -3.936,-1.278 -8.166,0.872 -9.443,4.812 l -32.688,100.607 c -1.283,3.933 0.873,8.154 4.809,9.44 3.935,1.279 8.161,-0.877 9.445,-4.819"
         id="path2147"
         style="fill:#ff3232;fill-opacity:1" />
    </g>
    <g
       class="_1bO9cZmkdNOHxa0Cw75pWX"
       style="fill:#ff3232;fill-opacity:1"
       id="g2173"
       transform="matrix(1.0904919,0,0,1.1051839,-41.818418,-36.779222)">
      <path
         d="m 399.713,293.364 c -16.15,-11.731 -43.157,-2.084 -60.333,21.547 -17.168,23.631 -17.989,52.3 -1.846,64.033 16.154,11.731 43.159,2.084 60.331,-21.547 17.171,-23.636 18.002,-52.302 1.848,-64.033"
         id="path2151"
         style="fill:#ff3232;fill-opacity:1" />
      <path
         d="m 486.762,173.553 c 26.98,19.605 69.728,6.75 95.482,-28.691 25.76,-35.447 24.758,-80.076 -2.215,-99.676 -26.988,-19.608 -69.73,-6.758 -95.49,28.688 -25.751,35.446 -24.759,80.078 2.223,99.679"
         id="path2153"
         style="fill:#ff3232;fill-opacity:1" />
      <path
         d="m 402.304,289.796 c 11.422,8.304 38.546,-9.556 60.581,-39.884 22.034,-30.331 30.635,-61.645 19.218,-69.943 -11.427,-8.303 -38.546,9.564 -60.586,39.889 -22.028,30.323 -30.635,61.645 -19.213,69.938"
         id="path2155"
         style="fill:#ff3232;fill-opacity:1" />
      <path
         d="m 321.911,156.748 85.58,62.177 c 3.348,2.434 8.03,1.69 10.463,-1.656 2.431,-3.348 1.695,-8.037 -1.656,-10.468 l -85.58,-62.177 c -3.348,-2.432 -8.036,-1.687 -10.468,1.656 -2.434,3.348 -1.69,8.036 1.661,10.468"
         id="path2157"
         style="fill:#ff3232;fill-opacity:1" />
      <path
         d="m 232.429,277.985 152.69,-15.811 c 5.976,-0.611 10.468,-4.446 10.044,-8.565 -0.427,-4.12 -5.612,-6.95 -11.583,-6.333 L 230.885,263.08 c -5.973,0.617 -10.471,4.452 -10.053,8.572 0.422,4.126 5.615,6.951 11.597,6.333"
         id="path2159"
         style="fill:#ff3232;fill-opacity:1" />
      <path
         d="m 440.04,189.551 c 4.14,0.034 7.532,-4.81 7.577,-10.804 L 448.856,25.24 c 0.055,-6.01 -3.27,-10.902 -7.407,-10.941 -4.139,-0.029 -7.528,4.811 -7.583,10.814 l -1.234,153.497 c -0.049,6.015 3.269,10.908 7.408,10.941"
         id="path2161"
         style="fill:#ff3232;fill-opacity:1" />
      <path
         d="m 485.513,222.595 c 1.32,3.931 6.989,5.569 12.696,3.666 l 145.602,-48.609 c 5.693,-1.905 9.254,-6.627 7.949,-10.55 -1.318,-3.921 -6.998,-5.562 -12.701,-3.663 l -145.605,48.615 c -5.696,1.897 -9.25,6.616 -7.941,10.541"
         id="path2163"
         style="fill:#ff3232;fill-opacity:1" />
      <path
         d="m 249.341,393.322 68.256,-26.493 c 2.67,-1.039 3.623,-5.009 2.119,-8.869 -1.492,-3.85 -4.871,-6.133 -7.539,-5.099 l -68.254,26.486 c -2.677,1.039 -3.617,5.004 -2.135,8.861 1.507,3.861 4.884,6.145 7.553,5.114"
         id="path2165"
         style="fill:#ff3232;fill-opacity:1" />
      <path
         d="m 363.569,466.278 4.11,-73.101 c 0.148,-2.862 -3.061,-5.358 -7.189,-5.592 -4.141,-0.233 -7.611,1.895 -7.78,4.756 l -4.094,73.105 c -0.164,2.856 3.048,5.363 7.188,5.597 4.133,0.224 7.61,-1.904 7.765,-4.765"
         id="path2167"
         style="fill:#ff3232;fill-opacity:1" />
      <path
         d="m 437.387,282.919 c -4.055,0.87 -6.313,6.333 -5.055,12.205 l 32.152,150.103 c 1.261,5.876 5.558,9.94 9.607,9.066 4.041,-0.873 6.304,-6.335 5.046,-12.209 L 446.984,291.978 c -1.255,-5.869 -5.559,-9.924 -9.597,-9.059"
         id="path2169"
         style="fill:#ff3232;fill-opacity:1" />
      <path
         d="m 467.873,253.538 c -2.434,3.343 -1.686,8.034 1.661,10.467 l 85.572,62.178 c 3.354,2.426 8.043,1.69 10.471,-1.663 2.434,-3.342 1.691,-8.03 -1.658,-10.462 l -85.578,-62.177 c -3.348,-2.434 -8.037,-1.69 -10.468,1.657"
         id="path2171"
         style="fill:#ff3232;fill-opacity:1" />
    </g>
    <g
       class="_1bO9cZmkdNOHxa0Cw75pWX"
       style="fill:#ff3232;fill-opacity:1"
       id="g2197"
       transform="matrix(1.0904919,0,0,1.1051839,-41.818418,-36.779222)">
      <path
         d="m 319.548,649.869 c 16.148,-11.732 15.319,-40.397 -1.846,-64.028 -17.171,-23.627 -44.182,-33.284 -60.332,-21.552 -16.154,11.737 -15.323,40.407 1.847,64.043 17.169,23.631 44.182,33.274 60.331,21.537"
         id="path2175"
         style="fill:#ff3232;fill-opacity:1" />
      <path
         d="m 170.327,444.485 c 26.977,-19.61 27.969,-64.231 2.22,-99.683 -25.757,-35.441 -68.505,-48.292 -95.49,-28.691 -26.983,19.609 -27.975,64.233 -2.218,99.679 25.748,35.45 68.504,48.296 95.488,28.695"
         id="path2177"
         style="fill:#ff3232;fill-opacity:1" />
      <path
         d="m 174.987,450.898 c -11.426,8.298 -2.82,39.616 19.208,69.938 22.04,30.334 49.165,48.189 60.586,39.892 11.421,-8.304 2.815,-39.61 -19.213,-69.936 C 213.529,460.46 186.406,442.6 174.987,450.898"
         id="path2179"
         style="fill:#ff3232;fill-opacity:1" />
      <path
         d="m 190.635,523.435 c -2.432,-3.352 -7.12,-4.101 -10.468,-1.661 l -85.575,62.179 c -3.353,2.433 -4.088,7.121 -1.661,10.464 2.434,3.352 7.115,4.095 10.467,1.651 l 85.58,-62.168 c 3.347,-2.439 4.09,-7.123 1.657,-10.465"
         id="path2181"
         style="fill:#ff3232;fill-opacity:1" />
      <path
         d="m 181.442,727.709 c 4.049,0.869 8.347,-3.197 9.607,-9.07 l 32.152,-150.094 c 1.255,-5.873 -1,-11.334 -5.055,-12.203 -4.043,-0.87 -8.34,3.182 -9.596,9.055 L 176.397,715.5 c -1.258,5.873 1.006,11.329 5.045,12.209"
         id="path2183"
         style="fill:#ff3232;fill-opacity:1" />
      <path
         d="m 171.099,493.86 c 1.314,-3.916 -2.25,-8.64 -7.936,-10.537 L 17.551,434.703 c -5.701,-1.904 -11.372,-0.257 -12.695,3.668 -1.309,3.913 2.254,8.64 7.951,10.544 l 145.6,48.609 c 5.7,1.904 11.382,0.272 12.692,-3.664"
         id="path2185"
         style="fill:#ff3232;fill-opacity:1" />
      <path
         d="m 216.581,460.823 c 4.145,-0.038 7.452,-4.928 7.405,-10.938 l -1.23,-153.509 c -0.058,-5.997 -3.445,-10.839 -7.589,-10.805 -4.136,0.041 -7.454,4.931 -7.397,10.941 l 1.234,153.505 c 0.048,6.002 3.437,10.836 7.577,10.806"
         id="path2187"
         style="fill:#ff3232;fill-opacity:1" />
      <path
         d="m 294.088,660.333 c -4.131,0.233 -7.349,2.74 -7.183,5.598 l 4.093,73.104 c 0.169,2.852 3.646,4.984 7.77,4.761 4.141,-0.228 7.358,-2.739 7.201,-5.602 l -4.106,-73.099 c -0.164,-2.862 -3.636,-4.993 -7.775,-4.762"
         id="path2189"
         style="fill:#ff3232;fill-opacity:1" />
      <path
         d="m 412.782,660.956 c 1.497,-3.848 0.541,-7.818 -2.131,-8.857 l -68.255,-26.492 c -2.671,-1.039 -6.04,1.253 -7.543,5.111 -1.495,3.867 -0.541,7.822 2.131,8.861 l 68.249,26.491 c 2.674,1.04 6.053,-1.243 7.549,-5.114"
         id="path2191"
         style="fill:#ff3232;fill-opacity:1" />
      <path
         d="m 423.355,534.717 -152.69,-15.811 c -5.977,-0.626 -11.165,2.216 -11.588,6.331 -0.427,4.116 4.07,7.958 10.046,8.576 l 152.69,15.805 c 5.974,0.621 11.173,-2.216 11.591,-6.332 0.424,-4.119 -4.072,-7.952 -10.049,-8.569"
         id="path2193"
         style="fill:#ff3232;fill-opacity:1" />
      <path
         d="m 240.556,487.166 c 2.434,3.348 7.115,4.083 10.468,1.652 l 85.575,-62.177 c 3.351,-2.432 4.092,-7.115 1.661,-10.468 -2.433,-3.343 -7.12,-4.083 -10.468,-1.651 l -85.578,62.177 c -3.344,2.433 -4.089,7.119 -1.658,10.467"
         id="path2195"
         style="fill:#ff3232;fill-opacity:1" />
    </g>
    <g
       class="_1bO9cZmkdNOHxa0Cw75pWX"
       style="fill:#ff3232;fill-opacity:1"
       id="g2221"
       transform="matrix(1.0904919,0,0,1.1051839,-41.818418,-36.779222)">
      <path
         d="m 532.525,801.424 c 27.779,-9.03 45.299,-31.733 39.129,-50.726 -6.166,-18.981 -33.688,-27.057 -61.468,-18.029 -27.779,9.032 -45.307,31.734 -39.132,50.722 6.163,18.98 33.69,27.05 61.471,18.033"
         id="path2199"
         style="fill:#ff3232;fill-opacity:1" />
      <path
         d="m 330.209,829.155 c -10.307,-31.715 -52.446,-46.454 -94.116,-32.915 -41.666,13.54 -67.096,50.23 -56.789,81.95 10.305,31.722 52.441,46.451 94.11,32.91 41.667,-13.538 67.099,-50.224 56.795,-81.945"
         id="path2201"
         style="fill:#ff3232;fill-opacity:1" />
      <path
         d="m 410.204,830.04 c 35.657,-11.576 61.023,-31.856 56.656,-45.289 -4.365,-13.423 -36.803,-14.921 -72.457,-3.333 -35.65,11.587 -61.012,31.856 -56.648,45.286 4.356,13.431 36.799,14.928 72.449,3.336"
         id="path2203"
         style="fill:#ff3232;fill-opacity:1" />
      <path
         d="m 421.008,839.048 c -1.277,-3.94 -5.5,-6.088 -9.441,-4.81 -3.935,1.276 -6.09,5.499 -4.812,9.439 l 32.698,100.607 c 1.272,3.929 5.496,6.081 9.436,4.805 3.94,-1.283 6.09,-5.5 4.81,-9.445 z"
         id="path2205"
         style="fill:#ff3232;fill-opacity:1" />
      <path
         d="M 597.355,894.161 464.53,817.2 c -5.193,-3.013 -11.09,-2.546 -13.164,1.029 -2.079,3.581 0.459,8.919 5.653,11.942 l 132.818,76.956 c 5.205,3.007 11.082,2.546 13.166,-1.025 2.081,-3.585 -0.45,-8.928 -5.648,-11.941"
         id="path2207"
         style="fill:#ff3232;fill-opacity:1" />
      <path
         d="m 377.405,843.678 c -3.323,-2.465 -8.914,-0.539 -12.471,4.29 l -91.238,123.455 c -3.57,4.834 -3.759,10.738 -0.44,13.206 3.333,2.462 8.919,0.538 12.491,-4.296 l 91.227,-123.455 c 3.57,-4.834 3.763,-10.742 0.431,-13.2"
         id="path2209"
         style="fill:#ff3232;fill-opacity:1" />
      <path
         d="m 192.935,737.396 c -1.244,3.944 2.383,8.619 8.112,10.416 l 146.38,46.262 c 5.72,1.816 11.37,0.082 12.609,-3.867 1.253,-3.945 -2.383,-8.609 -8.108,-10.422 L 205.562,733.53 c -5.731,-1.813 -11.388,-0.074 -12.627,3.866"
         id="path2211"
         style="fill:#ff3232;fill-opacity:1" />
      <path
         d="m 576.842,786.719 70.787,18.685 c 2.777,0.729 5.879,-1.924 6.939,-5.916 1.049,-4.004 -0.336,-7.842 -3.111,-8.576 l -70.785,-18.685 c -2.77,-0.734 -5.879,1.918 -6.939,5.927 -1.049,3.997 0.335,7.835 3.109,8.565"
         id="path2213"
         style="fill:#ff3232;fill-opacity:1" />
      <path
         d="m 611.01,665.459 c -3.199,-2.618 -7.266,-2.939 -9.084,-0.715 l -46.279,56.731 c -1.816,2.211 -0.686,6.137 2.516,8.76 3.213,2.609 7.277,2.93 9.096,0.714 l 46.285,-56.73 c 1.81,-2.226 0.679,-6.146 -2.534,-8.76"
         id="path2215"
         style="fill:#ff3232;fill-opacity:1" />
      <path
         d="m 505.468,609.481 c -3.779,-1.671 -8.815,1.419 -11.259,6.913 l -62.211,140.338 c -2.435,5.481 -1.343,11.291 2.438,12.967 3.785,1.678 8.831,-1.414 11.258,-6.903 l 62.223,-140.337 c 2.434,-5.491 1.343,-11.312 -2.449,-12.978"
         id="path2217"
         style="fill:#ff3232;fill-opacity:1" />
      <path
         d="m 355.18,660.688 c -3.935,1.288 -6.09,5.51 -4.809,9.449 l 32.689,100.602 c 1.279,3.931 5.502,6.087 9.438,4.811 3.941,-1.278 6.091,-5.506 4.81,-9.444 L 364.624,665.499 c -1.279,-3.927 -5.503,-6.083 -9.444,-4.811"
         id="path2219"
         style="fill:#ff3232;fill-opacity:1" />
    </g>
    <g
       class="_1bO9cZmkdNOHxa0Cw75pWX"
       style="fill:#ff3232;fill-opacity:1"
       id="g2245"
       transform="matrix(1.0904919,0,0,1.1051839,-41.818418,-36.779222)">
      <path
         d="m 745.467,542.097 c -19.963,0 -36.148,23.68 -36.148,52.888 0,29.208 16.186,52.894 36.148,52.894 19.957,0 36.141,-23.686 36.141,-52.894 0,-29.208 -16.184,-52.888 -36.141,-52.888"
         id="path2223"
         style="fill:#ff3232;fill-opacity:1" />
      <path
         d="m 745.467,795.969 c -33.359,0 -60.389,35.521 -60.389,79.341 0,43.813 27.029,79.333 60.389,79.333 33.346,0 60.379,-35.52 60.379,-79.333 0,-43.821 -27.034,-79.341 -60.379,-79.341"
         id="path2225"
         style="fill:#ff3232;fill-opacity:1" />
      <path
         d="m 745.467,788.029 c 14.107,0 25.559,-30.383 25.559,-67.876 0,-37.486 -11.451,-67.87 -25.559,-67.87 -14.129,0 -25.57,30.384 -25.57,67.87 -0.001,37.493 11.441,67.876 25.57,67.876"
         id="path2227"
         style="fill:#ff3232;fill-opacity:1" />
      <path
         d="M 888.709,712.663 H 782.924 c -4.139,0 -7.49,3.352 -7.49,7.49 0,4.146 3.352,7.496 7.49,7.496 h 105.785 c 4.139,0 7.492,-3.351 7.492,-7.496 0,-4.138 -3.353,-7.49 -7.492,-7.49"
         id="path2229"
         style="fill:#ff3232;fill-opacity:1" />
      <path
         d="m 889.838,561.986 -114.24,102.53 c -4.465,4.023 -5.85,9.765 -3.09,12.846 2.764,3.085 8.629,2.327 13.098,-1.686 L 899.848,573.135 c 4.467,-4.017 5.846,-9.755 3.086,-12.835 -2.758,-3.089 -8.622,-2.332 -13.096,1.686"
         id="path2231"
         style="fill:#ff3232;fill-opacity:1" />
      <path
         d="m 786.275,760.057 c -3.492,-4.894 -9.045,-6.904 -12.422,-4.495 -3.363,2.405 -3.26,8.317 0.225,13.19 l 89.23,124.923 c 3.49,4.896 9.043,6.895 12.418,4.499 3.369,-2.405 3.266,-8.312 -0.225,-13.199 z"
         id="path2233"
         style="fill:#ff3232;fill-opacity:1" />
      <path
         d="m 717.648,755.558 c -3.379,-2.405 -8.932,-0.395 -12.428,4.494 l -89.229,124.911 c -3.49,4.894 -3.592,10.8 -0.225,13.211 3.371,2.396 8.93,0.393 12.424,-4.499 l 89.232,-124.928 c 3.484,-4.873 3.588,-10.785 0.226,-13.189"
         id="path2235"
         style="fill:#ff3232;fill-opacity:1" />
      <path
         d="m 817.471,478.319 c -3.486,-2.245 -7.555,-2.109 -9.109,0.304 l -39.648,61.55 c -1.551,2.409 0.014,6.185 3.492,8.419 3.48,2.245 7.551,2.1 9.105,-0.306 l 39.65,-61.55 c 1.549,-2.403 -0.016,-6.173 -3.49,-8.417"
         id="path2237"
         style="fill:#ff3232;fill-opacity:1" />
      <path
         d="m 676.545,478.319 c -3.469,2.245 -5.037,6.015 -3.479,8.417 l 39.646,61.55 c 1.553,2.405 5.625,2.551 9.104,0.306 3.479,-2.234 5.043,-6.01 3.498,-8.419 l -39.654,-61.55 c -1.555,-2.413 -5.627,-2.549 -9.115,-0.304"
         id="path2239"
         style="fill:#ff3232;fill-opacity:1" />
      <path
         d="m 721.127,678.465 c 2.758,-3.085 1.379,-8.827 -3.092,-12.846 L 603.797,563.089 c -4.471,-4.019 -10.34,-4.774 -13.098,-1.686 -2.76,3.075 -1.381,8.823 3.09,12.831 l 114.24,102.539 c 4.469,4.02 10.332,4.777 13.098,1.692"
         id="path2241"
         style="fill:#ff3232;fill-opacity:1" />
      <path
         d="m 713.727,720.153 c 0,-4.139 -3.352,-7.49 -7.492,-7.49 h -105.78 c -4.139,0 -7.492,3.352 -7.492,7.49 0,4.146 3.354,7.496 7.492,7.496 h 105.779 c 4.141,0 7.493,-3.35 7.493,-7.496"
         id="path2243"
         style="fill:#ff3232;fill-opacity:1" />
    </g>
  </g>
</svg>
