<svg xmlns="http://www.w3.org/2000/svg" width="200" height="99" viewBox="0 0 52.916665 26.193751"><defs><clipPath id="a"><path d="M15.981 35.828h780.097v388.273H15.981z"/></clipPath></defs><g transform="matrix(.0753 0 0 .06863 -1.488 -2.674)" clip-path="url(#a)" font-weight="400"><path d="M386 214.656l-15.281 84.125h13.562l2.781-18.187h15.657l2.406 18.187h13.813l-15.094-84.125zm8.75 13.688l5.875 39.125H389.25zm77.574 44.194v-57.88h-14.363v59.603c0 8.982-1.626 13.233-7.82 13.233-5.886 0-7.473-3.918-7.473-12.416v-60.42h-14.402v57.88c0 18.994 6.465 27.96 21.99 27.96 15.525 0 22.068-8.966 22.068-27.96zm12.351 4.262l.193 1.383.194 1.343.27 1.309.272 1.262.31 1.227.387 1.185.387 1.146.426 1.103.464 1.065.504 1.022.542.98.58.936.581.895.658.855.658.81.736.762.736.724.774.678.774.635.852.588.852.542.89.5.93.449.967.406.968.36 1.007.314 1.045.263 1.084.22 1.084.171 1.123.12 1.162.074 1.161.023c13.009 0 21.642-9.315 21.642-21.627 0-13.233-8.401-19.675-19.242-29.687-5.846-5.413-9.988-9.435-9.988-15.424 0-5.068 2.98-8.41 7.356-8.41 4.258 0 7.123 3.57 8.053 10.256l12.776-1.966c-1.588-12.885-8.982-19.904-20.365-19.904-11.963 0-20.945 8.289-20.945 20.597 0 7.94 3.678 15.76 10.376 21.87 11.034 10.012 18.506 15.757 18.506 23.35 0 5.068-3.097 8.409-8.169 8.409-5.072 0-8.053-4.267-9.408-12.78zm79.212 21.976v-71.354h13.938v-12.764h-42.007v12.764h13.938v71.354zm24.301-84.12v84.125h14.187v-34.625h1.938c1.974 0 4.024-.15 5.843-.375l10.125 35h14.188l-11.5-37.187c7.588-4.491 11.5-11.951 11.5-22.188 0-9.106-3.317-16.487-8.157-20.281-5.42-4.146-11.5-4.469-19.437-4.469zm18.312 11.281c9.408 0 13.563 3.785 13.563 12.875 0 10.024-4.132 13.813-14.47 13.813-1.045 0-2.095-.005-3.218-.125v-26.344c1.471-.12 2.847-.219 4.125-.219zm56.306 72.839v-84.118h-14.054v84.118zm25.444-84.12l-15.344 84.125H686.5l2.75-18.187h15.625l2.469 18.187h13.812l-15.093-84.125zm8.719 13.688l5.875 39.125h-11.375zM339.738 38.88v320.525H19.228V38.88z" fill="#2f5f00"/><path d="M88.147 213.918H44.212v5.703h.696c7.44 0 10.586 1.858 10.586 7.317v56.715c0 6.048-3.146 7.786-11.282 7.894v6.048h43.935v-6.048c-8.258-.108-11.39-1.846-11.39-7.894v-56.715c0-5.459 3.132-7.317 10.693-7.317h.697zm59.297 85.539l.035-.441.043-.426.046-.41.054-.4.062-.387.066-.371.07-.357.077-.344.081-.33.09-.317.096-.302.1-.286.105-.275.113-.263.116-.244.124-.232.128-.221.131-.205.14-.19.143-.178.15-.163.152-.147.162-.135.163-.12.17-.109.175-.093.182-.077.185-.062.19-.05.194-.035.201-.023.201-.008c1.166 0 3.6 1.498 7.441 3.132 6.052 2.555 11.86 4.293 18.363 4.293 18.708 0 30.11-10.45 30.11-26.148 0-13.822-8.487-20.218-25.576-27.31-8.951-3.706-16.392-5.688-20.914-8.592-3.72-2.45-5.475-4.765-5.475-8.378 0-6.384 5.475-11.041 15.003-11.041 11.51 0 20.221 6.868 26.268 20.69h5.22l-.698-27.315h-5.339c-1.041 3.496-2.555 5.355-4.537 5.355-3.128 0-10.57-5.006-22.897-5.006-16.028 0-26.965 10.116-26.965 24.182 0 11.51 7.685 19.3 23.369 25.455 16.965 6.62 26.493 9.753 26.493 19.645 0 6.969-5.927 11.963-14.987 11.963-12.447 0-24.182-9.876-30.11-27.891h-5.927l1.286 34.167zm116.663-1.862h45.564v-6.048c-8.83-.228-12.447-1.967-12.447-8.018v-63.908c.697-.124 1.41-.124 2.102-.124 11.042 0 17.546 8.711 21.612 26.846h5.807l-.921-32.425h-77.99l-.925 32.893h5.234c4.87-18.603 10.918-27.434 22.185-27.434.697 0 1.513 0 2.21.12v63.808c0 6.275-3.48 8.014-12.431 8.242z" fill="#fff"/><path stroke="#fff" stroke-width="5.088" stroke-miterlimit="10.433" d="M120.13 320.6V74.057M230.261 320.6V74.057"/><path d="M26.14 409.01l3.115-17.816c.439-2.616 1.104-3.055 4.265-3.055l.227-1.467H22.313l-.227 1.467c2.692.106 3.72.333 3.72 1.77 0 .136-.045.59-.15 1.164l-3.086 17.83c-.408 2.314-.922 3.04-3.448 3.04h-.56l-.18 1.437h11.1l.257-1.437c-2.722-.136-3.751-.317-3.751-1.905 0-.152.03-.469.151-1.029zm13.943 4.37h2.98l.922-4.401c.59-2.828 2.133-6.805 4.19-10.042 1.572-2.495 2.978-3.735 4.4-3.735 1.15 0 1.845.62 1.845 1.8 0 1.497-.953 3.553-1.92 6.533-.802 2.495-1.21 4.552-1.21 6.094 0 2.51 1.104 3.827 2.979 3.827 2.132 0 3.858-2.133 5.96-6.398l-1.332-.544c-1.726 3.493-2.98 5.248-4.114 5.248-.59 0-1.028-.409-1.028-1.135 0-.846.438-2.389 1.18-4.627 1.028-3.13 1.875-5.732 1.875-8.091 0-2.571-1.543-4.144-3.932-4.144-2.904 0-5.218 2.601-7.653 7.894l-.287-.075v-.03c0-.409.408-1.846.408-4.19 0-2.36-.922-3.569-2.692-3.569-2.163 0-3.63 2.284-5.61 6.76l1.285.666c1.678-3.75 2.783-5.732 3.886-5.732.59 0 .923.514.923 1.467 0 1.618-.333 3.418-.771 5.52zm28.462-15.471l.004-.147.012-.145.023-.143.027-.142.035-.139.046-.136.05-.134.063-.131.065-.129.078-.125.081-.121.093-.118.097-.114.108-.11.113-.106.12-.102.127-.097.136-.092.143-.087.151-.082.155-.076.163-.071.174-.065.174-.06.186-.052.19-.047.2-.04.202-.033.213-.026.217-.019.225-.011.232-.004c1.723 0 2.675.59 2.675 1.104 0 .257-1.134.817-1.134 1.996 0 1.165.77 1.83 2.086 1.83 1.332 0 2.134-.877 2.134-2.284 0-2.056-2.42-3.931-5.839-3.931-3.96 0-6.349 2.253-6.349 4.9 0 2.087 1.134 3.553 3.221 5.353 2.69 2.314 4.824 3.267 4.824 5.37 0 1.723-1.618 3.13-4.49 3.13-1.759 0-2.831-.636-2.831-1.18 0-.303 1.212-.847 1.212-2.284 0-1.104-.88-1.905-2.238-1.905-1.394 0-2.242 1.028-2.242 2.495 0 2.208 2.498 4.295 6.14 4.295 4.45 0 7.233-2.42 7.233-5.58 0-2.209-1.68-3.645-4.22-5.702-2.497-2.011-4.085-2.934-4.085-4.703zm18.708 10.178l2.238-12.522h5.114l.209-1.255h-5.11l1.54-6.79h-1.316c-1.587 4.324-3.566 6.381-7.426 6.79l-.209 1.255h4.22l-1.982 11.024a16.974 16.974 0 0 0-.302 3.161c0 2.723 1.254 4.19 3.461 4.19 2.497 0 3.887-2.284 6.323-6.73l-1.36-.545c-1.982 3.675-3.267 5.58-4.568 5.58-.728 0-1.134-.59-1.134-1.769 0-.771.15-1.542.302-2.39zm15.955-20.644l.004.106.008.103.011.102.016.1.023.098.027.095.03.093.036.091.038.089.043.085.05.084.05.08.055.077.058.074.062.071.066.068.07.065.069.06.077.059.078.054.077.05.085.047.086.042.089.038.089.035.093.03.093.026.096.021.097.017.1.012.101.007.105.002c1.103 0 1.951-.877 1.951-1.981a1.957 1.957 0 0 0-1.951-1.951c-1.06 0-1.982.877-1.982 1.95zm-4.778 13.415l.186-.333.178-.323.178-.313.17-.303.167-.293.166-.284.16-.273.158-.264.15-.253.152-.243.147-.234.143-.222.143-.212.14-.202.135-.192.132-.181.132-.17.131-.16.128-.15.124-.139.124-.127.124-.117.12-.106.12-.095.12-.084.116-.074.12-.062.116-.05.116-.04.116-.029.116-.017.117-.005c.635 0 1.076.469 1.076 1.285 0 1.135-.743 2.602-1.618 4.658-1.696 4.008-2.726 6.957-2.726 9.044 0 2.314 1.134 3.6 2.981 3.6 2.284 0 3.934-2.239 6.353-6.534l-1.211-.771c-2.134 3.6-3.31 5.58-4.704 5.58-.589 0-1.026-.408-1.026-1.134 0-1.436 1.026-3.569 2.357-6.624 1.212-2.752 2.014-5.097 2.014-7.38 0-2.163-1.108-3.312-2.982-3.312-2.45 0-3.856 2.253-6.244 6.321zm18.541 7.229l2.238-12.522h5.11l.213-1.255h-5.095l1.541-6.79h-1.332c-1.572 4.324-3.554 6.381-7.41 6.79l-.224 1.255h4.216l-1.979 11.024a18.229 18.229 0 0 0-.286 3.161c0 2.723 1.239 4.19 3.446 4.19 2.497 0 3.902-2.284 6.322-6.73l-1.363-.545c-1.978 3.675-3.264 5.58-4.55 5.58-.742 0-1.133-.59-1.133-1.769 0-.771.135-1.542.286-2.39zm25.254-1.982l-.046.283-.047.28-.042.276-.039.273-.039.271-.038.269-.031.265-.031.263-.027.26-.028.258-.019.255-.02.253-.011.25-.012.247-.004.245-.004.242c0 2.359.953 3.569 2.722 3.569 2.056 0 3.705-2.284 5.475-6.806l-1.286-.62c-1.692 3.75-2.644 5.702-3.825 5.702-.546 0-.879-.454-.879-1.407 0-1.618.333-3.418.775-5.504l2.28-10.92h-2.977l-.922 4.447c-.546 2.676-2.06 6.684-4.189 9.996-1.545 2.465-2.98 3.72-4.522 3.72-1.107 0-1.727-.635-1.727-1.814 0-1.422.926-3.524 1.905-6.534.848-2.646 1.212-4.854 1.212-6.351 0-2.692-1.088-4.053-3.148-4.053-2.129 0-3.747 2.283-5.958 6.654l1.212.741c2.025-3.675 3.008-5.596 4.37-5.596.667 0 1.104.454 1.104 1.225 0 .877-.468 2.45-1.211 4.84-.995 3.206-1.874 5.853-1.874 8.166 0 2.571 1.54 4.144 3.856 4.144 2.83 0 5.11-2.646 7.712-7.864zm16.819 1.982l2.237-12.522h5.11l.214-1.255h-5.095l1.54-6.79h-1.331c-1.572 4.324-3.554 6.381-7.426 6.79l-.209 1.255h4.22l-1.982 11.024a18.229 18.229 0 0 0-.287 3.161c0 2.723 1.24 4.19 3.446 4.19 2.497 0 3.903-2.284 6.322-6.73l-1.359-.545c-1.982 3.675-3.267 5.58-4.553 5.58-.743 0-1.15-.59-1.15-1.769 0-.771.152-1.542.303-2.39zM181 393.719c-2.18 0-4.553 1-6.563 2.906-2.721 2.54-4.28 6.07-4.28 9.594 0 4.748 2.643 7.719 6.905 7.719 2.889 0 5.075-1.578 7.344-4.875l-1.062-.782c-2.13 2.783-3.632 4.063-6.156 4.063-2.498 0-3.688-1.912-3.688-5.844v-.531l.719-.156.719-.157.687-.156.656-.188.625-.156.625-.187.594-.219.563-.188.53-.218.532-.219.5-.25.469-.219.469-.25.406-.25.437-.281.375-.25.344-.281.344-.281.312-.282.313-.312.25-.281.25-.313.219-.313.218-.312.156-.313.157-.343.125-.313.125-.344.062-.343.063-.344.062-.344v-.375c0-2.314-1.653-3.812-4.406-3.812zm-1.344 1.344h.25c1.317 0 2.156.938 2.156 2.375 0 2.934-2.98 6.159-8.562 7.187l.125-.563.125-.562.156-.563.125-.53.156-.5.157-.5.187-.47.156-.468.188-.438.156-.406.188-.406.187-.406.188-.344.219-.344.187-.344.219-.312.219-.281.187-.282.219-.25.219-.25.218-.219.25-.187.219-.188.219-.156.25-.125.219-.125.25-.125.25-.093.218-.063.25-.031zm33.25-1.344c-5.215 0-9.844 4.935-9.844 11.437v.5l.032.469.03.469.063.469.063.437.094.438.093.406.125.406.125.406.157.375.156.375.156.344.188.344.218.312.22.313.218.312.219.281.25.25.28.25.282.22.281.218.282.188.312.187.344.156.312.125.344.125.375.125.344.094.375.062.375.032.406.03.406.032c5.262 0 9.97-4.886 9.97-11.344-.001-5.444-2.88-8.843-7.25-8.843zm-.031 1.406h.219l.25.031.219.031.218.032.219.03.188.063.187.063.188.094.187.093.188.094.156.094.156.125.125.156.156.125.125.156.125.156.125.188.094.187.125.188.094.219.062.187.094.25.062.219.063.25.062.25.063.281.031.281.031.282.032.312.03.313v.655c0 7.047-2.611 11.969-6.406 11.969-2.632 0-3.906-1.838-3.906-5.438 0-7.199 2.717-11.937 6.438-11.937zm16.627 1.619l-2.601 15.502c-.844 4.915-1.541 6.987-4.054 6.987-.39 0-.77-.227-.77-.454 0-.318.515-.62.515-1.497 0-.817-.589-1.467-1.68-1.467-1.147 0-1.874.801-1.874 2.011 0 1.664 1.238 2.722 3.523 2.722 4.448 0 6.535-3.569 7.758-10.798l2.165-13.006h4.189l.213-1.406h-4.116l.484-2.783c.62-3.796 1.208-5.701 3.341-5.701.88 0 1.437.332 1.437.544 0 .484-1.104.666-1.104 1.996 0 1.135.666 1.754 1.982 1.754 1.181 0 2.103-.983 2.103-2.389 0-1.905-1.696-3.267-4.31-3.267-4.115 0-6.066 3.206-6.972 9.846h-4.704l-.229 1.406zm22.715 16.969h1.514c.515-1.18 1.103-1.77 1.8-1.77 1.165 0 3.372 1.997 7.197 1.997 4.704 0 8.077-3.358 8.077-7.79 0-3.901-2.192-5.625-5.475-7.757-3.554-2.36-5.943-3.781-5.943-6.61 0-2.434 1.905-4.188 4.522-4.188 3.372 0 6.094 2.828 6.578 7.637h1.467a116.7 116.7 0 0 1 1.181-9.12H271.7c-.515 1.029-1.076 1.513-1.665 1.513-1.057 0-2.826-1.573-6.202-1.573-4.414 0-7.53 2.964-7.53 7.199 0 3.78 2.268 5.474 5.807 7.788 3.523 2.314 5.656 3.781 5.656 6.458 0 2.904-2.237 4.855-5.188 4.855-3.93 0-6.713-2.98-7.348-8.59h-1.618c-.26 3.085-.65 6.382-1.394 9.95zm40.942-5.173l-1.076-.816c-2.056 3.085-3.628 4.673-5.808 4.673-2.462 0-3.81-1.875-3.81-5.444 0-2.572.771-5.626 2.239-8.334 1.238-2.359 2.497-3.357 4.475-3.357 1.258 0 1.909.484 1.909.923 0 .62-1.607 1.33-1.607 2.752 0 1.225.801 1.951 2.164 1.951 1.514 0 2.54-1.24 2.54-2.934 0-2.36-2.176-4.19-5.11-4.19-2.18 0-4.445 1.105-6.427 3.192-2.436 2.57-3.752 5.807-3.752 9.15 0 4.93 2.83 7.864 6.942 7.864 3.055 0 5.219-1.754 7.321-5.43zm10.918-21.097l.004.106.008.103.012.102.015.1.023.098.027.095.031.093.035.091.043.089.042.085.05.084.05.08.055.077.062.074.062.071.066.068.07.065.07.06.077.059.077.054.081.05.086.047.085.042.089.038.089.035.093.03.096.026.097.021.097.017.1.012.101.007.105.002c1.088 0 1.936-.877 1.936-1.981 0-1.074-.88-1.951-1.936-1.951-1.076 0-1.998.877-1.998 1.95zm-4.777 13.415l.181-.333.182-.323.175-.313.174-.303.166-.293.167-.284.158-.273.16-.264.15-.253.151-.243.147-.234.144-.222.143-.212.135-.202.14-.192.131-.181.132-.17.128-.16.127-.15.128-.139.124-.127.124-.117.12-.106.12-.095.12-.084.116-.074.12-.062.116-.05.117-.04.116-.029.116-.017.116-.005c.635 0 1.072.469 1.072 1.285 0 1.135-.74 2.602-1.618 4.658-1.692 4.008-2.722 6.957-2.722 9.044 0 2.314 1.15 3.6 2.981 3.6 2.285 0 3.93-2.239 6.35-6.534l-1.208-.771c-2.133 3.6-3.299 5.58-4.704 5.58-.589 0-1.03-.408-1.03-1.134 0-1.436 1.03-3.569 2.362-6.624 1.208-2.752 2.01-5.097 2.01-7.38 0-2.163-1.104-3.312-2.978-3.312-2.45 0-3.856 2.253-6.245 6.321zm25.106-7.139c-2.164 0-4.537 1-6.562 2.906-2.722 2.54-4.281 6.07-4.281 9.594 0 4.748 2.674 7.719 6.937 7.719 2.904 0 5.06-1.578 7.344-4.875l-1.094-.782c-2.118 2.783-3.616 4.063-6.156 4.063-2.497 0-3.688-1.912-3.688-5.844v-.531l.75-.156.688-.157.687-.156.656-.188.625-.156.625-.187.594-.219.563-.188.562-.218.5-.219.5-.25.5-.219.438-.25.437-.25.406-.281.375-.25.375-.281.344-.281.313-.282.281-.312.281-.281.25-.313.219-.313.188-.312.187-.313.156-.343.125-.313.125-.344.063-.343.062-.344.031-.344.032-.375c0-2.314-1.685-3.812-4.438-3.812zm-1.344 1.344h.25c1.328 0 2.157.938 2.157 2.375 0 2.934-2.964 6.159-8.563 7.187l.125-.563.156-.562.125-.563.157-.53.156-.5.156-.5.156-.47.188-.468.156-.438.188-.406.187-.406.188-.406.187-.344.188-.344.219-.344.187-.312.219-.281.219-.282.218-.25.219-.25.219-.219.219-.187.25-.188.218-.156.219-.125.25-.125.219-.125.25-.093.25-.063.219-.031zm13.091 18.317h2.981l.922-4.401c.588-2.828 2.133-6.805 4.189-10.042 1.571-2.495 2.98-3.735 4.402-3.735 1.15 0 1.842.62 1.842 1.8 0 1.497-.952 3.553-1.904 6.533-.817 2.495-1.224 4.552-1.224 6.094 0 2.51 1.104 3.827 2.977 3.827 2.134 0 3.857-2.133 5.959-6.398l-1.328-.544c-1.727 3.493-2.966 5.248-4.116 5.248-.588 0-1.03-.409-1.03-1.135 0-.846.442-2.389 1.181-4.627 1.03-3.13 1.874-5.732 1.874-8.091 0-2.571-1.54-4.144-3.93-4.144-2.903 0-5.218 2.601-7.654 7.894l-.286-.075v-.03c0-.409.41-1.846.41-4.19 0-2.36-.925-3.569-2.694-3.569-2.16 0-3.628 2.284-5.61 6.76l1.285.666c1.68-3.75 2.784-5.732 3.887-5.732.589 0 .922.514.922 1.467 0 1.618-.333 3.418-.77 5.52zm38.897-4.84l-1.056-.816c-2.06 3.085-3.647 4.673-5.808 4.673-2.466 0-3.829-1.875-3.829-5.444 0-2.572.77-5.626 2.254-8.334 1.243-2.359 2.497-3.357 4.48-3.357 1.254 0 1.904.484 1.904.923 0 .62-1.603 1.33-1.603 2.752 0 1.225.802 1.951 2.16 1.951 1.499 0 2.544-1.24 2.544-2.934 0-2.36-2.18-4.19-5.114-4.19-2.176 0-4.445 1.105-6.427 3.192-2.435 2.57-3.752 5.807-3.752 9.15 0 4.93 2.83 7.864 6.942 7.864 3.055 0 5.219-1.754 7.306-5.43zm16.919-14.821c-2.16 0-4.538 1-6.563 2.906-2.706 2.54-4.25 6.07-4.25 9.594 0 4.748 2.613 7.719 6.875 7.719 2.904 0 5.106-1.578 7.375-4.875l-1.062-.782c-2.13 2.783-3.663 4.063-6.188 4.063-2.512 0-3.656-1.912-3.656-5.844v-.531l.719-.156.687-.157.688-.156.656-.188.656-.156.594-.187.594-.219.562-.188.563-.218.531-.219.469-.25.5-.219.437-.25.438-.25.406-.281.375-.25.375-.281.344-.281.312-.282.281-.312.282-.281.25-.313.219-.313.187-.312.188-.313.156-.343.125-.313.093-.344.094-.343.063-.344.03-.344.032-.375c0-2.314-1.67-3.812-4.437-3.812zm-1.344 1.344h.25c1.332 0 2.156.938 2.156 2.375 0 2.934-2.948 6.159-8.531 7.187l.125-.563.125-.562.125-.563.156-.53.156-.5.157-.5.156-.47.188-.468.156-.438.187-.406.188-.406.187-.406.188-.344.187-.344.219-.344.188-.312.218-.281.219-.282.219-.25.219-.25.218-.219.219-.187.219-.188.25-.156.219-.125.25-.125.218-.125.25-.093.25-.063.219-.031zm33.188-1.344c-5.188 0-9.625 5.8-9.625 13 0 4.597 2.158 7.156 5.875 7.156 2.245 0 4.007-1.106 5.75-3.344l.375.156v.22l.03.187.032.156v.188l.031.156.063.187.062.156.031.157.063.125.062.156.032.125.093.125.063.125.093.125.032.094.062.125.125.093.094.094.062.063.094.093.094.063.093.062.094.063.125.062.094.063.094.031.125.031.125.031.125.032h.093l.125.03h.125c2.478 0 3.774-2.143 5.594-6.468l-1.344-.406c-1.548 3.342-2.478 5.062-3.562 5.062-.542 0-.969-.417-.969-1.218 0-.363.088-.948.281-1.72l3.25-14.843h-2.781l-.688 2.719h-.28c-.697-2.133-2.3-3.313-4.313-3.313zm.187 1.344h.344l.156.03.156.032.188.031.156.063.125.03.156.095.156.062.125.094.157.062.093.125.125.094.125.125.063.125.125.125.094.156.093.125.094.156.063.188.093.156.031.188.063.187.062.219.032.187.062.22v.25l.063.218.03.25v.5l.032.25c0 2.797-.762 6.491-2.156 9.531-1.084 2.36-2.453 3.531-4.156 3.531-1.936 0-3.157-1.48-3.157-4.187 0-3.16.927-7.153 2.282-9.875 1.122-2.208 2.498-3.344 4.125-3.344zm16.539 18.317h2.98l.93-4.401c.58-2.828 2.13-6.805 4.181-10.042 1.588-2.495 2.981-3.735 4.414-3.735 1.123 0 1.82.62 1.82 1.8 0 1.497-.93 3.553-1.898 6.533-.813 2.495-1.239 4.552-1.239 6.094 0 2.51 1.123 3.827 2.982 3.827 2.129 0 3.871-2.133 5.962-6.398l-1.316-.544c-1.743 3.493-2.982 5.248-4.104 5.248-.62 0-1.046-.409-1.046-1.135 0-.846.426-2.389 1.2-4.627 1.007-3.13 1.859-5.732 1.859-8.091 0-2.571-1.549-4.144-3.95-4.144-2.903 0-5.187 2.601-7.626 7.894l-.31-.075v-.03c0-.409.426-1.846.426-4.19 0-2.36-.93-3.569-2.71-3.569-2.168 0-3.6 2.284-5.614 6.76l1.316.666c1.665-3.75 2.788-5.732 3.872-5.732.58 0 .93.514.93 1.467 0 1.618-.35 3.418-.775 5.52zm43.524-27.849c-2.362.288-4.654.469-6.938.469h-.625l.188 1.375h.968c1.975 0 2.906.155 2.906 1.063 0 .075.023.455-.093 1l-1.25 7.156h-.344c-.968-1.876-2.472-2.813-4.563-2.813-4.53 0-9.125 5.297-9.125 11.906 0 5.036 2.76 8.25 6.438 8.25 2.362 0 4.294-1.353 5.688-4l.28.25v.438c0 2.208.767 3.281 2.626 3.281 2.207 0 3.844-2.26 5.625-6.812l-1.281-.469c-1.627 3.6-2.605 5.469-3.844 5.469-.62 0-.969-.418-.969-1.219 0-.666.111-1.604.344-2.844zm-9.657 9.719c2.323 0 3.5 1.788 3.5 5.281 0 7.017-2.459 11.594-5.75 11.594h-.406l-.188-.031-.218-.031-.188-.063-.156-.031-.188-.094-.156-.062-.156-.094-.156-.094-.125-.094-.125-.125-.125-.125-.156-.156-.125-.125-.063-.156-.125-.188-.125-.187-.063-.188-.093-.187-.063-.219-.093-.219-.063-.218-.031-.25-.063-.25-.03-.282-.032-.25-.031-.28-.063-.313v-.282l-.03-.343v-.313c0-6.972 2.396-11.625 5.687-11.625zm29.704 18.13h12.776l.233-1.437c-3.253-.06-4.491-.257-4.491-1.905 0-.182.077-.515.116-1.029l3.6-20.795h.194c5.188 0 6.427 1.543 6.427 6.942v.741h1.664l1.162-9.225h-22.146l-1.897 8.847h1.704c1.78-5.354 3.871-7.305 8.982-7.305h.27l-3.522 20.69c-.387 2.495-.93 3.039-4.182 3.039h-.658zm33.078-19.661c-2.169 0-4.581 1-6.594 2.906-2.71 2.54-4.25 6.07-4.25 9.594 0 4.748 2.616 7.719 6.875 7.719 2.903 0 5.09-1.578 7.375-4.875l-1.094-.782c-2.13 2.783-3.64 4.063-6.156 4.063-2.517 0-3.688-1.912-3.688-5.844v-.531l.75-.156.688-.157.687-.156.657-.188.625-.156.625-.187.593-.219.563-.188.562-.218.532-.219.468-.25.5-.219.469-.25.406-.25.407-.281.375-.25.406-.281.281-.281.313-.282.312-.312.281-.281.219-.313.25-.313.188-.312.187-.313.156-.343.125-.313.125-.344.063-.343.03-.344.063-.344.032-.375c0-2.314-1.658-3.812-4.407-3.812zm-1.375 1.344h.25c1.316 0 2.156.938 2.156 2.375 0 2.934-2.988 6.159-8.563 7.187l.125-.563.157-.562.156-.563.125-.53.156-.5.125-.5.219-.47.156-.468.156-.438.188-.406.187-.406.188-.406.187-.344.219-.344.188-.344.187-.312.219-.281.218-.282.22-.25.187-.25.25-.219.218-.187.22-.188.25-.156.218-.125.25-.125.219-.125.25-.093.218-.063.282-.031zm25.442 13.477l-1.084-.816c-2.052 3.085-3.64 4.673-5.77 4.673-2.477 0-3.832-1.875-3.832-5.444 0-2.572.774-5.626 2.246-8.334 1.238-2.359 2.477-3.357 4.452-3.357 1.277 0 1.936.484 1.936.923 0 .62-1.626 1.33-1.626 2.752 0 1.225.813 1.951 2.168 1.951 1.51 0 2.516-1.24 2.516-2.934 0-2.36-2.13-4.19-5.11-4.19-2.168 0-4.414 1.105-6.427 3.192-2.4 2.57-3.717 5.807-3.717 9.15 0 4.93 2.826 7.864 6.93 7.864 3.059 0 5.227-1.754 7.318-5.43zm6.543 4.84h2.98l.93-4.326c.542-2.691 2.052-6.502 4.181-9.86 1.549-2.42 3.059-3.63 4.569-3.63 1.084 0 1.664.59 1.664 1.755 0 1.361-.851 3.388-1.858 6.397-.852 2.54-1.2 4.567-1.2 5.989 0 2.465 1.084 3.78 2.981 3.78 2.207 0 3.988-2.056 6.078-6.2l-1.2-.696c-1.974 3.418-3.213 5.218-4.413 5.218-.581 0-1.046-.408-1.046-1.15 0-.83.504-2.313 1.24-4.506 1.006-3.085 1.858-5.671 1.858-7.94 0-2.54-1.55-4.083-3.872-4.083-2.865 0-5.15 2.616-7.743 7.788l-.31-.105 3.562-16.273c-2.633.575-4.452.62-5.498.62h-1.897l-.232 1.285c2.633.152 3.755.288 3.755 1.467 0 .106-.038.409-.116.817zm26.288 0h2.942l.93-4.401c.58-2.828 2.129-6.805 4.22-10.042 1.548-2.495 2.942-3.735 4.413-3.735 1.123 0 1.82.62 1.82 1.8 0 1.497-.968 3.553-1.898 6.533-.813 2.495-1.239 4.552-1.239 6.094 0 2.51 1.123 3.827 2.982 3.827 2.129 0 3.832-2.133 5.962-6.398l-1.316-.544c-1.743 3.493-2.982 5.248-4.143 5.248-.58 0-1.007-.409-1.007-1.135 0-.846.426-2.389 1.162-4.627 1.045-3.13 1.897-5.732 1.897-8.091 0-2.571-1.549-4.144-3.95-4.144-2.903 0-5.226 2.601-7.626 7.894l-.31-.075v-.03c0-.409.387-1.846.387-4.19 0-2.36-.89-3.569-2.671-3.569-2.168 0-3.64 2.284-5.614 6.76l1.278.666c1.703-3.75 2.787-5.732 3.91-5.732.58 0 .89.514.89 1.467 0 1.618-.31 3.418-.735 5.52zm34.414-19.661c-5.227 0-9.875 4.935-9.875 11.437l.031.5v.469l.063.469.062.469.031.437.125.438.094.406.094.406.156.406.125.375.188.375.156.344.187.344.22.312.218.313.187.312.282.281.218.25.282.25.28.22.25.218.313.188.313.187.312.156.344.125.344.125.344.125.375.094.375.062.375.032.406.03.375.032c5.265 0 10-4.886 10-11.344 0-5.444-2.914-8.843-7.25-8.843zm-.031 1.406h.219l.25.031.218.031.188.032.25.03.187.063.188.063.187.094.157.093.218.094.157.094.125.125.156.156.156.125.125.156.125.156.125.188.094.187.125.188.062.219.094.187.062.25.094.219.063.25.062.25.063.281.03.281.063.282v.312l.032.313v.655c0 7.047-2.613 11.969-6.407 11.969-2.632 0-3.937-1.838-3.937-5.438 0-7.199 2.752-11.937 6.469-11.937zm21.677 11.495l-.193.34-.155.328-.194.319-.193.308-.155.298-.155.288-.155.277-.194.266-.154.257-.155.245-.116.235-.155.224-.155.214-.116.203-.155.192-.116.182-.155.17-.116.16-.155.15-.116.138-.117.127-.116.117-.155.105-.116.095-.116.084-.116.072-.116.062-.116.05-.155.039-.116.028-.116.017-.117.006c-.696 0-1.161-.484-1.161-1.407 0-.181.077-.726.27-1.543l5.189-23.773c-2.943.665-4.8.665-5.808.665-.193 0-.658 0-1.548-.045l-.271 1.285c2.671.152 3.755.257 3.755 1.512 0 .152-.038.409-.116.772l-4.065 18.708a8.597 8.597 0 0 0-.232 2.056c0 2.163 1.239 3.494 3.33 3.494 2.4 0 4.142-2.254 6.465-6.655zm15.292-12.901c-5.227 0-9.844 4.935-9.844 11.437v.969l.062.469.063.469.093.437.063.438.125.406.094.406.125.406.156.375.156.375.156.344.188.344.187.312.25.313.22.312.25.281.218.25.281.25.281.22.282.218.312.188.313.187.312.156.313.125.343.125.344.125.406.094.375.062.344.032.438.03.375.032c5.265 0 9.968-4.886 9.968-11.344 0-5.444-2.875-8.843-7.25-8.843zm-.032 1.406h.22l.25.031.218.031.25.032.187.03.22.063.187.063.156.094.219.093.125.094.218.094.157.125.156.156.093.125.157.156.125.156.125.188.093.187.094.188.125.219.063.187.093.25.063.219.094.25.03.25.032.281.031.281.031.282.063.312.031.313v.655c0 7.047-2.62 11.969-6.375 11.969-2.671 0-3.969-1.838-3.969-5.438 0-7.199 2.721-11.937 6.438-11.937zm21.938-1.406c-4.878 0-9.313 5.595-9.313 12.719 0 4.476 2.135 7 5.813 7 2.207 0 3.984-1.074 5.687-3.282l.344.188c-1.471 5.837-3.343 8.75-6.75 8.75-.968 0-1.531-.33-1.531-.844 0-.484.562-1.023.562-1.719 0-1.134-.892-1.75-1.937-1.75-1.781 0-2.688.802-2.688 2.344 0 1.981 2.014 3.438 5.344 3.438 5.304 0 8.207-3.515 9.563-10.563l3.093-15.688h-2.812l-.688 2.75h-.25c-.62-2.192-2.23-3.343-4.437-3.343zm.5 1.25h.218l.157.031h.187l.188.031.156.063.156.03.157.063.156.063.156.062.094.094.125.094.156.094.125.093.125.125.094.125.093.125.094.156.094.157.062.156.094.156.062.188.094.156.031.219.094.187.031.219.031.219.032.218v.22l.03.25v.25l.063.25v.28c0 2.496-.817 6.052-2.25 9.032-1.122 2.268-2.482 3.437-4.03 3.437-2.169 0-3.376-1.417-3.376-4.094 0-3.055.95-6.916 2.344-9.562 1.123-2.133 2.53-3.188 4.156-3.188zm12.826 5.662l.194-.319.193-.309.155-.3.194-.29.155-.282.193-.272.155-.262.155-.252.155-.244.155-.233.155-.223.155-.214.116-.203.155-.194.116-.184.155-.174.116-.164.155-.153.116-.143.116-.133.116-.123.116-.112.116-.102.116-.092.155-.08.116-.07.117-.06.116-.05.116-.037.116-.028.116-.016.116-.005c.62 0 1.046.439 1.046 1.285 0 2.571-3.252 6.912-3.252 12.235 0 2.858 1.355 4.477 3.484 4.477 2.4 0 4.181-2.057 6.233-6.125h.349l-2.13 7.456c-.813 2.858-2.787 4.446-4.917 4.446-.89 0-1.432-.333-1.432-.847 0-.439.542-.847.542-1.543 0-1.21-.813-1.875-2.013-1.875-1.51 0-2.4.877-2.4 2.39 0 1.98 1.819 3.342 4.994 3.342 4.568 0 7.588-2.798 8.75-8.122l3.91-18.117h-2.981c-2.323 11.645-5.73 17.498-8.634 17.498-1.045 0-1.626-.666-1.626-1.921 0-1.467.968-3.418 2.052-6.246 1.006-2.677 1.548-4.81 1.548-6.458 0-2.314-1.122-3.463-3.252-3.463-2.206 0-3.678 2.132-6 6.216z"/></g></svg>